<svg xmlns="http://www.w3.org/2000/svg" viewBox="0 0 69.63 57.52"><defs><style>.cls-1{fill:#cdd4d4;}.cls-2{fill:#abb7b7;}.cls-3{fill:#808989;}</style></defs><title>asteroids</title><g id="Слой_2" data-name="Слой 2"><g id="Planets"><path class="cls-1" d="M18.62,50c6-.38,4.95-1.52,11.41-6.27s6.86.63,12.65-2.6,5.71-5.68,6.37-10.82,3.38-8,5.82-9.26c9.22-4.66,8.29-3,10.43-12.89-6.09-6.38-15.91,3.17-31.12,14-3.11,2.21-16.28,3-19.46,4.69-14,7.54-19.51,12.8-9.89,22.7.33.34.67.67,1,1C10.68,49.58,12.64,50.4,18.62,50Z"/><path class="cls-2" d="M69.44,17.56h0a20.79,20.79,0,0,0-2.27-6.69,11.76,11.76,0,0,0-1.86-2.68c-2.14,9.92-1.21,8.23-10.43,12.89-2.44,1.23-5.15,4.12-5.82,9.26s-.59,7.59-6.37,10.82S36.5,39,30,43.76,24.62,49.64,18.62,50s-7.94-.44-12.79.51a23.84,23.84,0,0,0,13.38,6.79C29.53,58.72,40.63,52.8,52,44.74,65.44,35.21,70.74,26.3,69.44,17.56Z"/><path class="cls-3" d="M.62,37.88a7.35,7.35,0,0,0,7.16.73c4.09-1.71,3.61-1.81,6.66-4.95s4.47-4.75,8.27-5.71a7.09,7.09,0,0,0,4.92-3.82s-11.51,1.94-11.77,2.25a9.09,9.09,0,0,0-1.88.86S6.92,31.06,5.5,32.48C5.5,32.48,1.61,35.31.62,37.88Z"/><path class="cls-3" d="M52,44.74c-11.37,8.06-22.47,14-32.79,12.58-.27-1.12,0-2.33,2-3,3.57-1.28,1.07-1.64,6.44-1.21s7.46-1.64,10.67-4,4.92-3.35,9.13-6.49,1.85-7.92,3.92-10.9,6.06-8.07,9.56-7.93,8.37-6,8.52-6.19C70.74,26.3,65.44,35.21,52,44.74Z"/><path class="cls-3" d="M22.9,41.15c0,1.44,1.45,2.6-1.43,2.6s-2.85-1.17-2.85-2.6,0-2.6,2.85-2.6S22.9,39.72,22.9,41.15Z"/><path class="cls-3" d="M48.49,25.28c0,1.92-3.31,5-6,5S39,28.78,39,26.86s.93-2.43,3.61-2.43S48.49,23.37,48.49,25.28Z"/><path class="cls-3" d="M35.94,38.14a2,2,0,0,1-1.71,2.22c-.95,0-.38-1-.38-2.22s-.57-2.22.38-2.22A2,2,0,0,1,35.94,38.14Z"/><path class="cls-1" d="M13.81,4.94c-1.33,1.18-.88,1.26-1.52,3.55s-1.72,1.1-2.48,2.91-.3,2.37.49,3.69a3.42,3.42,0,0,1,.33,3.22c-1.3,2.77-1.4,2.21-.08,4.91,2.59.38,3.14-3.65,4.72-8.95.32-1.08,3.26-3.67,3.69-4.64,1.9-4.33,2.22-6.55-1.83-7.11l-.41,0A25.83,25.83,0,0,1,13.81,4.94Z"/><path class="cls-2" d="M7.87,21.8h0A6.23,6.23,0,0,0,9.62,23a3.53,3.53,0,0,0,.92.28c-1.31-2.71-1.22-2.14.08-4.91a3.42,3.42,0,0,0-.33-3.22c-.78-1.32-1.25-1.88-.49-3.69s1.83-.63,2.48-2.91.19-2.36,1.52-3.55a25.83,25.83,0,0,0,2.9-2.45,7.07,7.07,0,0,0-4.37.86C9.68,4.9,8.17,8.31,7,12.27,5.58,16.95,6,20,7.87,21.8Z"/><path class="cls-3" d="M20.24,4.49a2.18,2.18,0,0,0-1.81,1.14A4,4,0,0,0,17.78,8a4.59,4.59,0,0,1-.89,2.84,2.1,2.1,0,0,0-.45,1.79s2.33-2.55,2.34-2.67a2.59,2.59,0,0,0,.28-.54,20.93,20.93,0,0,0,1-2.77A5,5,0,0,0,20.24,4.49Z"/><path class="cls-3" d="M7,12.27c1.19-4,2.7-7.37,5.36-8.92.27.21.43.54.09,1.07-.6,1,0,.58-1.28,1.46A4,4,0,0,0,9.39,8.76c-.32,1.14-.54,1.68-.95,3.18s1,2.19,1.07,3.26.06,3-.79,3.59-.86,2.93-.86,3C6,20,5.58,16.95,7,12.27Z"/><path class="cls-3" d="M14.43,7.79c-.26-.33-.81-.34-.14-.87s.88-.25,1.14.09.48.6-.19,1.13S14.7,8.13,14.43,7.79Z"/><path class="cls-3" d="M11.35,16.17a2.06,2.06,0,0,1,.48-2.27.92.92,0,0,1,1.46.17c.35.45.22.74-.4,1.23S11.7,16.62,11.35,16.17Z"/><path class="cls-3" d="M11.94,10.88a.6.6,0,0,1,0-.83c.22-.17.27.16.49.45s.54.42.32.59A.6.6,0,0,1,11.94,10.88Z"/><path class="cls-1" d="M41.29,2.89C39,2.9,39.41,3.35,36.9,5s-2.54-.39-4.77.68-2.25,2-2.62,3.89a4.3,4.3,0,0,1-2.37,3.32C23.6,14.39,24,13.78,23,17.42c2.12,2.51,6-.82,11.91-4.5,1.21-.75,6.13-.75,7.35-1.31,5.4-2.49,7.55-4.33,4.19-8.23L46.07,3C44.24,3.24,43.53,2.89,41.29,2.89Z"/><path class="cls-2" d="M21.63,13.84h0a7.67,7.67,0,0,0,.69,2.54,4.46,4.46,0,0,0,.63,1c1-3.65.64-3,4.18-4.57a4.3,4.3,0,0,0,2.37-3.32c.37-1.9.39-2.81,2.62-3.89s2.25.94,4.77-.68S39,2.9,41.29,2.89s2.95.35,4.78.1A8.91,8.91,0,0,0,41.23.16c-3.81-.75-8.08,1.2-12.49,3.95C23.52,7.36,21.34,10.56,21.63,13.84Z"/><path class="cls-3" d="M47.72,7.82a2.75,2.75,0,0,0-2.65-.43,5,5,0,0,0-2.59,1.69c-1.21,1.1-1.77,1.67-3.21,1.94a2.65,2.65,0,0,0-1.92,1.32s4.33-.46,4.44-.58a3.38,3.38,0,0,0,.72-.28,26.43,26.43,0,0,0,3.28-1.76A6.24,6.24,0,0,0,47.72,7.82Z"/><path class="cls-3" d="M28.74,4.11C33.15,1.36,37.42-.59,41.23.16c.08.43,0,.87-.8,1.09-1.36.4-.44.59-2.43.31S35.18,2,33.94,2.8,32,3.94,30.39,5s-.87,2.91-1.71,4-2.44,2.87-3.74,2.74-3.25,2-3.31,2.11C21.34,10.56,23.52,7.36,28.74,4.11Z"/><path class="cls-3" d="M39.5,6.1c0-.54-.48-1,.59-.94s1,.5,1,1-.05,1-1.12.9S39.46,6.64,39.5,6.1Z"/><path class="cls-3" d="M29.61,11.43A2.61,2.61,0,0,1,32,9.69a1.16,1.16,0,0,1,1.23,1.37c0,.72-.4.88-1.4.82S29.57,12.15,29.61,11.43Z"/><path class="cls-3" d="M34.57,6.93c0-.46.33-.81.69-.79s.12.38.09.84.16.84-.19.82A.75.75,0,0,1,34.57,6.93Z"/></g></g></svg>