<svg xmlns="http://www.w3.org/2000/svg" viewBox="0 0 96 106.52"><defs><style>.cls-1{fill:#1b9bbe;}.cls-2{fill:#87d37c;}.cls-3{fill:#fbfcfc;}.cls-4{fill:#072730;opacity:0.6;}.cls-5{fill:#7e7e7e;}</style></defs><title>earth</title><g id="Слой_2" data-name="Слой 2"><g id="Planets"><circle class="cls-1" cx="43.24" cy="63.28" r="43.24"/><path class="cls-2" d="M15.67,70.08a.29.29,0,0,0,0,.1Z"/><path class="cls-2" d="M41.67,69.5l-4.58-3.06-1.7-.14-1.54-3-2.92-1.51-3.23.07-1.53,1.29-1.47-2.9-3.16.09-1.29,1.37H17l-.07-1.49L15.47,58.8l-.07-1.65s-1.77-.31-1.68.05-1.36,1.3-1.36,1.3a15.25,15.25,0,0,1-1.49-2.94l1.44-1.49s4.43.1,4.88,0,2.58,1.2,2.87,1.37,3.33-3,3.21-3.26,1.48-5.5,1.45-5.83,3-3.11,3-3.11l4.76-.08,0-3,.46,0,4.23,1.57L40,38.56l-1.59-.05c.25-1-2.61-4.83-2.94-4.53a29.85,29.85,0,0,1-2.82,1.47l-6.38.1s-1.62,2.92-1.67,3l-1.32-1.43L21.56,37l.07-3.12,4-1.44.71,0L28,33.86,32,32.39l3.45-.06c-.29-2.18-3-4.58-3-4.58H29.31c.33.35-4.11,2.94-4.11,2.94a2.06,2.06,0,0,1-.78,0c-.58-1.92-5.62-3.08-5.62-3.08l-.06,0a43.12,43.12,0,0,0-18.23,29l.2.16.73.26,1.88.21,1.35,1.42s-.09-.41,1.84,0,4.19,3,4.19,3l3.3.07,1.42,1.51h3.09l0,1.7a10.61,10.61,0,0,0-1.82,1.84,27.69,27.69,0,0,0-1.05,3.27s.07.14.09,1.34c0,1.87,4.38,5.74,4.38,5.74l3,.12.12,3.24,3,5.58s-.31,3.74,0,3.69c0,0,.82,2.39,1.3,2.47a28.49,28.49,0,0,1,1.1,3,14.91,14.91,0,0,1,.72,1.84c.16.62,1.6,1.79,1.6,1.79l2.9-.12s-1.36-1.61-1.68-1.94a17.24,17.24,0,0,1-1.25-2.27s.09-.14,0-.69,1.43-3.57,1.41-4.08,3.28-1.67,3.28-1.67l0-4.74,3.07-1.54a18.27,18.27,0,0,1,.12-3.11c.19-.33,2.47-.89,3-1.56S43,72.9,43.15,72.69,41.81,69.24,41.67,69.5Z"/><polygon class="cls-2" points="32.49 46.45 34 47.79 35.48 46.45 33.98 44.88 32.35 44.88 32.35 46.11 32.49 46.45"/><polygon class="cls-2" points="36.88 46.11 35.34 44.88 35.48 43.3 38.56 43.3 38.43 44.7 37.26 45.91 36.88 46.11"/><polygon class="cls-2" points="57.11 35.57 57.11 37.08 58.72 38.42 59.82 37.18 58.83 35.77 57.11 35.57"/><polygon class="cls-2" points="60.37 35.57 61.75 34.23 64.6 35.57 63.33 38.42 61.78 38.42 61.78 36.8 60.37 35.57"/><path class="cls-2" d="M67.91,27.77v4.5a8.52,8.52,0,0,0,1.77,2l2.88,1.13L71.19,37l-3.28.19-1.52,1.24v3.09l-1.51-1.27-3.16,0-1.34,2.92,1.48,2.88,2.75.31,2-1.92s3-.93,4.08-2.61S72.12,44,72.12,44l.45,2.37,1.55,1.34L77,46.28l-2.61-3.09,1.2-1.37,3,2.58.17,1.75,1.79.21,1.27,1.37,1.81.15A43.8,43.8,0,0,0,67.91,27.77Z"/><path class="cls-2" d="M76.16,91.31,74,89.66V86.5l-2.68-5.63,2.88-3.5-1.44-2.88.14-3.64-2.75-1.1L67,69.26l-3.23,1.92-3.4-.27-3.26-1.37s-1.58-4-1.58-4.19v-4.6l1.31-1.37L57.11,54l1.36-1.31h3l2.33-1.44,5.63-.41,4.26,2.88s3.78-2.68,5.08-2.33,2.13.89,2.88,1a33.28,33.28,0,0,0,3.43.1S92.07,72.25,76.16,91.31Z"/><circle class="cls-3" cx="86.63" cy="9.37" r="9.37"/><path class="cls-4" d="M67.45,27.34a43.24,43.24,0,0,1-60,60,43.24,43.24,0,1,0,60-60Z"/><path class="cls-5" d="M90.53.86A9.35,9.35,0,0,1,79.75,15.71,9.36,9.36,0,1,0,90.53.86Z"/></g></g></svg>