<svg xmlns="http://www.w3.org/2000/svg" viewBox="0 0 126.24 126.24"><defs><style>.cls-1{fill:#f89406;}.cls-1,.cls-2{opacity:0.9;}.cls-2,.cls-3{fill:#7c4a03;}.cls-3{opacity:0.6;}</style></defs><title>jupiter</title><g id="Слой_2" data-name="Слой 2"><g id="Planets"><path class="cls-1" d="M126.24,63.13q0,1.06,0,2.13c0,.38,0,.75,0,1.13,0,.78-.1,1.54-.15,2.32,0,.38-.07.75-.11,1.14s-.1.89-.17,1.33-.08.68-.14,1-.11.79-.18,1.18-.1.63-.15.93c-.08.46-.17.9-.25,1.35s-.18.85-.28,1.26-.21,1-.33,1.43c-.28,1.11-.59,2.22-.92,3.32-.18.57-.36,1.14-.56,1.69-.12.36-.25.72-.37,1.07s-.17.49-.26.72q-.31.85-.67,1.71c-.19.49-.39,1-.6,1.43,0,.08-.07.17-.11.25-.14.33-.29.65-.44,1,0,.06-.06.11-.08.18-.25.53-.5,1.05-.76,1.58s-.43.84-.65,1.25c-.39.75-.79,1.47-1.21,2.2-.31.53-.61,1.06-.95,1.57l-.05.1a62.58,62.58,0,0,1-4.06,5.78l-.87,1.07a62.56,62.56,0,0,1-10,9.72c-.65.51-1.31,1-2,1.49-.46.33-.93.67-1.42,1s-.85.57-1.26.83-.86.54-1.29.81c-.87.54-1.76,1-2.68,1.54-.43.24-.88.47-1.32.69-1.68.86-3.4,1.65-5.17,2.36l-1.18.46c-.71.26-1.42.53-2.14.76-.28.1-.56.2-.84.28-1.64.53-3.32,1-5,1.39-.67.17-1.34.31-2,.43s-1.15.22-1.74.32a3.36,3.36,0,0,1-.51.08l-1.68.26c-.72.08-1.45.18-2.18.25s-1.28.11-1.93.15c-.82.06-1.64.1-2.47.13l-1.88,0c-.74,0-1.46,0-2.18,0h0c-.72,0-1.45-.07-2.17-.11-1-.05-1.92-.15-2.86-.26s-1.9-.24-2.83-.39c-1.4-.22-2.79-.49-4.17-.8l-2-.51-.11,0q-1-.25-1.92-.54c-1.45-.44-2.86-.93-4.26-1.47-.67-.25-1.33-.51-2-.79l-.42-.18c-.82-.36-1.62-.72-2.43-1.11s-1.6-.79-2.37-1.21-1.33-.74-2-1.12l-.46-.26c-1.17-.69-2.31-1.43-3.42-2.2s-2.21-1.57-3.26-2.4c-.72-.56-1.42-1.14-2.11-1.72A63.14,63.14,0,0,1,5.78,89.53c-.15-.33-.3-.65-.44-1l0-.07a62.45,62.45,0,0,1-2.53-6.76v0a63.29,63.29,0,0,1-2.53-13v0C.08,66.83,0,65,0,63.13A62.85,62.85,0,0,1,1,52.21v-.12A63.19,63.19,0,0,1,6.15,35.9l.07-.14A63.53,63.53,0,0,1,9.94,29.1L10,29A63.06,63.06,0,0,1,63.11,0,61.12,61.12,0,0,1,73.64.9c.69.11,1.39.25,2.07.39.48.08,1,.19,1.44.31.67.15,1.33.32,2,.49l.26.07c.74.21,1.47.42,2.19.64l.44.14,1.62.53.07,0q.79.27,1.58.58l.63.22C87.69,5,89.37,5.71,91,6.51L92,7q1.84.94,3.58,2l.92.57q2.44,1.52,4.72,3.26l1.07.83c.71.56,1.42,1.14,2.1,1.74.35.29.68.6,1,.9l1,.92c.67.61,1.31,1.25,1.93,1.9a65.18,65.18,0,0,1,4.47,5.11c.56.72,1.1,1.44,1.63,2.18s1.18,1.69,1.75,2.57c0,.06.07.1.1.15.46.72.9,1.46,1.33,2.19S118.58,33,119,33.8s.72,1.39,1.06,2.1h0c.07.17.17.36.25.54.29.62.58,1.26.86,1.92s.57,1.38.83,2.07c.07.17.13.32.19.49.25.68.5,1.38.74,2.07,0,0,0,.1,0,.15.26.78.51,1.57.74,2.36s.46,1.64.67,2.47c.08.32.15.63.22.94s.21.92.3,1.38c0,.19.07.38.11.56l.21,1.11s0,.08,0,.13a.5.5,0,0,0,0,.14l.25,1.64c.07.4.13.82.17,1.22s.1.75.14,1.13c.1.85.17,1.7.22,2.56s.09,1.43.11,2.15v0C126.22,61.67,126.24,62.39,126.24,63.13Z"/><path class="cls-2" d="M126.24,63.13q0,1.06,0,2.13c0,.38,0,.75,0,1.13,0,.78-.1,1.54-.15,2.32,0,.38-.07.75-.11,1.14s-.1.89-.17,1.33-.08.68-.14,1-.11.79-.18,1.18-.1.63-.15.93c-.08.46-.17.9-.25,1.35s-.18.85-.28,1.26-.21,1-.33,1.43c-.28,1.11-.59,2.22-.92,3.32-.18.57-.36,1.14-.56,1.69-.12.36-.25.72-.37,1.07s-.17.49-.26.72q-.31.85-.67,1.71c-.19.49-.39,1-.6,1.43,0,.08-.07.17-.11.25-.14.33-.29.65-.44,1,0,.06-.06.11-.08.18-.25.53-.5,1.05-.76,1.58s-.43.84-.65,1.25c-.39.75-.79,1.47-1.21,2.2-.31.53-.61,1.06-.95,1.57l-.05.1a62.58,62.58,0,0,1-4.06,5.78l-.87,1.07a62.56,62.56,0,0,1-10,9.72c-.65.51-1.31,1-2,1.49-.46.33-.93.67-1.42,1s-.85.57-1.26.83-.86.54-1.29.81c-.87.54-1.76,1-2.68,1.54-.43.24-.88.47-1.32.69-1.68.86-3.4,1.65-5.17,2.36l-1.18.46c-.71.26-1.42.53-2.14.76-.28.1-.56.2-.84.28-1.64.53-3.32,1-5,1.39-.67.17-1.34.31-2,.43s-1.15.22-1.74.32a3.36,3.36,0,0,1-.51.08l-1.68.26c-.72.08-1.45.18-2.18.25s-1.28.11-1.93.15c-.82.06-1.64.1-2.47.13l-1.88,0c-.74,0-1.46,0-2.18,0h0c-.72,0-1.45-.07-2.17-.11-1-.05-1.92-.15-2.86-.26s-1.9-.24-2.83-.39c-1.4-.22-2.79-.49-4.17-.8l-2-.51-.11,0q-1-.25-1.92-.54c-1.45-.44-2.86-.93-4.26-1.47-.67-.25-1.33-.51-2-.79l-.42-.18c-.82-.36-1.62-.72-2.43-1.11s-1.6-.79-2.37-1.21-1.33-.74-2-1.12l-.46-.26c-1.17-.69-2.31-1.43-3.42-2.2s-2.21-1.57-3.26-2.4c-.72-.56-1.42-1.14-2.11-1.72a63.9,63.9,0,0,0,10.53.89A62.75,62.75,0,0,0,74.09,96.41a60.72,60.72,0,0,0,6.76-6.88c.28-.32.56-.65.81-1a61,61,0,0,0,4.86-6.88,62.82,62.82,0,0,0,9.13-29.59q.08-1.63.08-3.25A63,63,0,0,0,94.4,35.9,59.6,59.6,0,0,0,92.55,29,63.11,63.11,0,0,0,73.64.9c.69.11,1.39.25,2.07.39.48.08,1,.19,1.44.31.67.15,1.33.32,2,.49l.26.07c.74.21,1.47.42,2.19.64l.44.14,1.62.53.07,0c.75.25,1.49.51,2.21.81C87.69,5,89.37,5.71,91,6.51L92,7q1.84,1,3.58,2l.92.57q2.44,1.52,4.72,3.26l1.07.83c.71.56,1.42,1.14,2.1,1.74.35.29.68.6,1,.9l1,.92c.65.63,1.31,1.26,1.93,1.9a65.18,65.18,0,0,1,4.47,5.11c.56.72,1.1,1.44,1.63,2.18s1.18,1.69,1.75,2.57c0,.06.07.1.1.15.46.72.9,1.46,1.33,2.19S118.58,33,119,33.8s.72,1.39,1.06,2.1h0c.07.17.17.36.25.54.29.62.58,1.26.86,1.92s.57,1.38.83,2.07c.07.17.13.32.19.49.25.68.5,1.38.74,2.07,0,0,0,.1,0,.15.26.78.51,1.57.74,2.36s.46,1.64.67,2.47c.08.32.15.63.22.94s.21.92.3,1.38c0,.19.07.38.11.56l.21,1.11s0,.08,0,.13a.5.5,0,0,0,0,.14l.25,1.64c.07.4.13.82.17,1.22s.1.75.14,1.13c.1.85.17,1.7.22,2.56s.09,1.43.11,2.15v0C126.22,61.67,126.24,62.39,126.24,63.13Z"/><polygon class="cls-3" points="120.08 35.9 120.07 35.9 94.4 35.9 6.15 35.9 6.22 35.76 9.94 29.1 10 29.02 92.55 29.02 116.23 29.02 120.08 35.9"/><path class="cls-3" d="M126.24,63.13q0,1.06,0,2.13c0,.38,0,.75,0,1.13,0,.78-.1,1.54-.15,2.32H.24v0L1,52.21v-.12H125.28a.5.5,0,0,0,0,.14l.25,1.64c.07.4.13.82.17,1.22s.1.75.14,1.13c.1.85.17,1.7.22,2.56s.09,1.43.11,2.15v0C126.22,61.67,126.24,62.39,126.24,63.13Z"/><path class="cls-3" d="M123.47,81.67c-.18.57-.36,1.14-.56,1.69-.12.36-.25.72-.37,1.07s-.17.49-.26.72q-.31.85-.67,1.71c-.19.49-.39,1-.6,1.43,0,.08-.07.17-.11.25H5.33l0-.07L2.78,81.71v0Z"/><path class="cls-3" d="M120.46,89.53c0,.06-.06.11-.08.18-.25.53-.5,1.05-.76,1.58s-.43.84-.65,1.25c-.39.75-.79,1.47-1.21,2.2-.31.53-.61,1.06-.95,1.57l-.05.1H9.49a63,63,0,0,1-3.71-6.88Z"/></g></g></svg>