<svg xmlns="http://www.w3.org/2000/svg" viewBox="0 0 40.6 40.6"><defs><style>.cls-1{fill:#b1b4b5;}.cls-1,.cls-2{opacity:0.9;}.cls-2{fill:#595a5b;}.cls-3{fill:#858788;}</style></defs><title>mercury</title><g id="Слой_2" data-name="Слой 2"><g id="Planets"><circle class="cls-1" cx="20.3" cy="20.3" r="20.3"/><path class="cls-2" d="M23.69.29A20.3,20.3,0,0,1,10.49,36a20.6,20.6,0,0,1-3.39-.28A20.3,20.3,0,1,0,23.69.29Z"/><path class="cls-3" d="M8.55,5.44a1.53,1.53,0,0,0,0,3.07A1.53,1.53,0,0,0,8.55,5.44Z"/><path class="cls-3" d="M18.05,6.05a1.53,1.53,0,0,0,0,3.06A1.53,1.53,0,0,0,18.05,6.05Z"/><path class="cls-3" d="M12.54,17.09a1.53,1.53,0,0,0,0,3.07A1.53,1.53,0,0,0,12.54,17.09Z"/><path class="cls-3" d="M4.87,18a1.53,1.53,0,0,0,0,3.07A1.53,1.53,0,0,0,4.87,18Z"/><path class="cls-3" d="M4.87,27.2a1.53,1.53,0,0,0,0,3.07A1.53,1.53,0,0,0,4.87,27.2Z"/><path class="cls-3" d="M23.57,11.88a1.53,1.53,0,0,0,0,3.06A1.53,1.53,0,0,0,23.57,11.88Z"/><path class="cls-3" d="M15,24.75a1.53,1.53,0,0,0,0,3.07A1.53,1.53,0,0,0,15,24.75Z"/></g></g></svg>