<svg xmlns="http://www.w3.org/2000/svg" viewBox="0 0 101.46 58.64"><defs><style>.cls-1{fill:#ef4836;}.cls-2{fill:#f59186;}.cls-3{fill:#fff;}.cls-4{fill:#fbfcfc;}</style></defs><title>meteorite</title><g id="Слой_2" data-name="Слой 2"><g id="Planets"><path class="cls-1" d="M98.73,7.95c1.58-.49-40.4,22.23-43.93,24.9-2.68,2-5.51,1.24-6.13,0s.24-4,3.46-4.95C57.57,26.27,94,9.39,98.73,7.95Z"/><path class="cls-2" d="M89.24,12.47c1-.3-32.53,17.64-34.71,19.29-1.65,1.24-3.39.77-3.77,0s.15-2.46,2.13-3C56.24,27.71,86.35,13.36,89.24,12.47Z"/><path class="cls-3" d="M57.36,28.37c.48,1-3,3.93-4.38,4.62s-3,.45-3.44-.54.28-2.35,1.7-3S56.88,27.38,57.36,28.37Z"/><path class="cls-1" d="M85.76,26.19c2-.74-42.44,26.92-46.73,30.59-3.25,2.78-6.92,2-7.8.45s0-5.11,4-6.57C42,48.19,79.89,28.4,85.76,26.19Z"/><path class="cls-2" d="M77.71,30.7C78.8,30.29,41.23,52.94,38.86,55c-1.8,1.54-3.83,1.12-4.32.25s0-2.83,2.22-3.64C40.52,50.22,74.46,31.92,77.71,30.7Z"/><path class="cls-3" d="M41.64,51.5c.58,1.19-3.56,4.72-5.26,5.54s-3.56.54-4.13-.65.33-2.83,2-3.66S41.07,50.31,41.64,51.5Z"/><path class="cls-1" d="M101.41,24.55c1.24-.47-19.16,12.79-21.85,15.09-2,1.75-4.35,1.27-4.9.28s0-3.21,2.52-4.13C81.45,34.25,97.72,25.94,101.41,24.55Z"/><path class="cls-2" d="M98.17,26.67c.61-.23-18.4,11.06-19.73,12.2-1,.86-2.14.63-2.42.14s0-1.58,1.24-2C79.37,36.2,96.35,27.35,98.17,26.67Z"/><path class="cls-3" d="M81.39,36.25c.35.72-2.17,2.88-3.21,3.38s-2.17.33-2.53-.4.21-1.72,1.25-2.23S81,35.53,81.39,36.25Z"/><path class="cls-4" d="M39.76,29.93a.83.83,0,0,0,0-1.66.83.83,0,0,0,0,1.66Z"/><path class="cls-4" d="M27.54,33.75a.83.83,0,0,0,0-1.67.83.83,0,0,0,0,1.67Z"/><path class="cls-4" d="M26,43.68A.83.83,0,0,0,26,42a.83.83,0,0,0,0,1.67Z"/><path class="cls-4" d="M.8,45.59a.83.83,0,0,0,0-1.66.83.83,0,0,0,0,1.66Z"/><path class="cls-4" d="M14.56,43.3a.83.83,0,0,0,0-1.66.83.83,0,0,0,0,1.66Z"/><path class="cls-4" d="M17.23,30.69a.83.83,0,0,0,0-1.66.83.83,0,0,0,0,1.66Z"/><path class="cls-4" d="M42.44,43.3a.83.83,0,0,0,0-1.66.83.83,0,0,0,0,1.66Z"/><path class="cls-4" d="M47.4,18.09a.83.83,0,0,0,0-1.66.83.83,0,0,0,0,1.66Z"/><path class="cls-4" d="M38.62,7.78a.83.83,0,0,0,0-1.66.83.83,0,0,0,0,1.67Z"/><path class="cls-4" d="M34.42,22.29a.83.83,0,0,0,0-1.66.83.83,0,0,0,0,1.66Z"/><path class="cls-4" d="M12.64,11.6a.83.83,0,0,0,0-1.66.83.83,0,0,0,0,1.66Z"/><path class="cls-4" d="M21.43,17.32a.83.83,0,0,0,0-1.66.83.83,0,0,0,0,1.66Z"/><path class="cls-4" d="M55.42,1.67a.83.83,0,0,0,0-1.67.83.83,0,0,0,0,1.67Z"/><path class="cls-4" d="M53.13,14.65a.83.83,0,0,0,0-1.67.83.83,0,0,0,0,1.67Z"/><path class="cls-4" d="M71.09,14.65a.83.83,0,0,0,0-1.67.83.83,0,0,0,0,1.67Z"/><path class="cls-4" d="M65.74,6.25a.83.83,0,0,0,0-1.67.83.83,0,0,0,0,1.67Z"/><path class="cls-4" d="M71.47,28a.83.83,0,0,0,0-1.67.83.83,0,0,0,0,1.67Z"/><path class="cls-4" d="M86.75,20.76a.83.83,0,0,0,0-1.66.83.83,0,0,0,0,1.66Z"/><path class="cls-4" d="M61.15,20a.83.83,0,0,0,0-1.66.83.83,0,0,0,0,1.66Z"/><path class="cls-4" d="M52.75,39.48a.83.83,0,0,0,0-1.67.83.83,0,0,0,0,1.67Z"/><path class="cls-4" d="M70.71,44.83a.83.83,0,0,0,0-1.67.83.83,0,0,0,0,1.67Z"/><path class="cls-4" d="M80.25,9.31a.83.83,0,0,0,0-1.67.83.83,0,0,0,0,1.67Z"/></g></g></svg>