<svg xmlns="http://www.w3.org/2000/svg" viewBox="0 0 223.53 223.53"><defs><style>.cls-1,.cls-2{fill:#fbfcfc;}.cls-1{opacity:0.1;}.cls-3{fill:#767879;}.cls-4{fill:#b1b4b5;opacity:0.9;}</style></defs><title>moon</title><g id="Слой_2" data-name="Слой 2"><g id="Planets"><circle class="cls-1" cx="111.77" cy="111.77" r="111.77"/><circle class="cls-2" cx="111.77" cy="111.77" r="93.36"/><path class="cls-3" d="M178.5,151.58c2.28-.06,2.84.75,1.23,1.8s-2.92,2.92-2.92,4.15-1.77,3.71-3.93,5.5-4.38,3.76-4.94,4.38.05,1.42,1.35,1.79,3.62-.34,5.16-1.57a37,37,0,0,0,5.5-5.95c1.48-2,3.1-4.21,3.59-4.82a9.11,9.11,0,0,1,2.35-1.91c.8-.43,1.46,0,1.46.9s1,.32,2.24-1.35a36.36,36.36,0,0,0,3.81-7.07l2.92-7.52c.74-1.91,1.14-4.08.9-4.82a13.16,13.16,0,0,1-.45-3.38,5.42,5.42,0,0,1,1-3.14,10.51,10.51,0,0,0,1.68-3.35,21.83,21.83,0,0,0,.67-5.16,21.51,21.51,0,0,1,1-5.83,6.37,6.37,0,0,0-.34-4.94,6.89,6.89,0,0,1-.79-4.6,6,6,0,0,0-1.68-4.82,9.6,9.6,0,0,1-2.47-5.16A21.1,21.1,0,0,0,194.43,89c-.68-1.54-1.59-2.8-2-2.8s-2-1.36-3.59-3a20.32,20.32,0,0,1-3.54-5,7.19,7.19,0,0,0-3.48-3.25,7.57,7.57,0,0,1-3.42-2.8,6.56,6.56,0,0,0-2.47-2.58l-4.26-2.36a10.53,10.53,0,0,1-3.59-3.37,13.7,13.7,0,0,0-4.6-3.93c-1.91-1-4.08.11-4.82,2.58l1.35.45,1.35.45c.37,2.1-.23,3.41-1.35,2.92a4.79,4.79,0,0,1-2.47-2.47,16.46,16.46,0,0,1-.45-3.7,2.26,2.26,0,0,0-2.36-2.13c-1.3,0-1.9,1.06-1.35,2.36A7.51,7.51,0,0,1,154,64a8.07,8.07,0,0,1-1.68,2.8,30.89,30.89,0,0,0-2.13,2.58,2.94,2.94,0,0,1-2.69.79,6.79,6.79,0,0,1-3.48-2.47c-.86-1.17-2.38-3.14-3.37-4.38s-.48-2.6,1.12-3a3.63,3.63,0,0,0,2.8-3.25,30,30,0,0,1,0-3.37c.06-.49-1.2-1.81-2.8-2.92a48.71,48.71,0,0,0-6.39-3.59c-1.91-.86-3.48-1-3.48-.34S131,48,129.93,48a3.8,3.8,0,0,0-2.8,1.12l-1.35,1.91a23.44,23.44,0,0,0-1.57,3.25A3.19,3.19,0,0,0,125,58c1,.68,3.11,2,4.71,2.92s3,2.34,3.14,3.14-.69,2.11-1.8,2.92-2.78,2.11-3.7,2.92-.57,2,.79,2.69,1.91,1.84,1.23,2.58a19.23,19.23,0,0,1-2.69,2.36,32.05,32.05,0,0,1-3.25,1.91,13.93,13.93,0,0,0-3.7,3.37c-1,1.36-1,2.92,0,3.48a43.43,43.43,0,0,0,6.06,2.24c2.28.68,4,2.29,3.82,3.59s-.54,3.31-.79,4.49a4.11,4.11,0,0,0,1.79,3.7,4.68,4.68,0,0,0,4.49.34c1.23-.68,6.08-.53,10.77.34s8.32,3,8.08,4.82a16.8,16.8,0,0,0,.9,6.84c.74,2,.19,5.66-1.23,8.19s-3.54,4.6-4.71,4.6a36,36,0,0,0-6.73,1.23,39.83,39.83,0,0,0-7.41,2.8,56.17,56.17,0,0,0-5.95,4,20.29,20.29,0,0,0-4.82,5.95c-.93,1.91-.57,3.78.79,4.15a44.7,44.7,0,0,0,6.28,1c2.1.19,4,1.29,4.26,2.47a6.32,6.32,0,0,1-.9,4.15,58.79,58.79,0,0,1-3.93,4.94l-4.49,5c-1,1.17-.09,2.94,2.13,3.93s4,2.85,4,4.15,2.07,2.81,4.6,3.37a14.05,14.05,0,0,0,8.08-.79,13.23,13.23,0,0,1,6.28-1.46c1.54.19,4.17-1,5.83-2.58l5.39-5.16a50.62,50.62,0,0,0,4.26-4.71,23.55,23.55,0,0,1,4.82-4.37A16,16,0,0,1,178.5,151.58Z"/><path class="cls-3" d="M72.76,148.26c-.19-.23-.83.66-1.43,2a5.44,5.44,0,0,0-.54,3.54,12.68,12.68,0,0,1,.54,4c0,1.57.55,3.28,1.22,3.81a4.78,4.78,0,0,1,1.22,3.33,4.49,4.49,0,0,0,2,3.54A16.41,16.41,0,0,0,80.37,170a32.77,32.77,0,0,1,4.49,1.09,18.91,18.91,0,0,1,3.6,1.77A9.33,9.33,0,0,0,92.82,174c1.5,0,2.93.86,3.2,1.9a8.5,8.5,0,0,0,1.9,3.33c.79.79,1.77,1.18,2.18.88a3.19,3.19,0,0,0,.75-2.24c0-.94.79-1.15,1.77-.48a31.41,31.41,0,0,1,3.54,3,7.87,7.87,0,0,0,3.54,2,2.37,2.37,0,0,1,1.77,2.38,5,5,0,0,1-1,3.06c-.52.52.73,1.38,2.79,1.91s4.23.52,4.83,0a1.7,1.7,0,0,1,2.31.41,5.07,5.07,0,0,1,1.22,2.86,2.71,2.71,0,0,0,1.77,2.18,14.71,14.71,0,0,0,5.37.27,16.3,16.3,0,0,0,5.37-1.5,22.7,22.7,0,0,1,5.58-1.9,16.66,16.66,0,0,0,5.1-1.84,25.79,25.79,0,0,1,6.05-2.38l.41-.41.41-.41c2.77-1.57,4.51-3.19,3.88-3.6a4.28,4.28,0,0,0-3.26.07,36.09,36.09,0,0,1-4.22,1.29c-1.16.26-2.69.54-3.4.61a11,11,0,0,0-3.67,1.84,15.89,15.89,0,0,1-5.1,2.24,12.25,12.25,0,0,1-4.08.21,2.39,2.39,0,0,1-1.63-1.63c-.15-.71-1.34-1.41-2.65-1.56a23.32,23.32,0,0,0-3.81-.14,3.33,3.33,0,0,1-2.25-.61c-.45-.41,0-1.27.88-1.9s2.28-1.46,3-1.84,1-1.9.54-3.4a35.93,35.93,0,0,0-1.43-4.22,4.48,4.48,0,0,0-2.72-2,17.46,17.46,0,0,0-3.33-.51h-4.15a4.75,4.75,0,0,0-3.88,1.87,2.43,2.43,0,0,1-2.65,1.33,1.61,1.61,0,0,1-.88-2.24,11.2,11.2,0,0,0,1-6.32,17.43,17.43,0,0,0-.82-3.26,7.05,7.05,0,0,0-2.11-2.72,19.37,19.37,0,0,0-3.94-2,6.22,6.22,0,0,0-4-.14,12,12,0,0,0-2.31,1.43c-.41.37-.9-.33-1.09-1.57a24.75,24.75,0,0,1-.2-4.35A3.11,3.11,0,0,0,91.94,151a3.38,3.38,0,0,0-2.58-.21c-.56.3-.71,1.28-.34,2.18a24,24,0,0,1,1.09,3.61,6.84,6.84,0,0,1-.34,3.6,2.72,2.72,0,0,1-2.31,1.56,13.18,13.18,0,0,1-3-.54,5.37,5.37,0,0,1-2.38-2.86,17.8,17.8,0,0,0-2.31-4A22.43,22.43,0,0,1,77.52,151a4.36,4.36,0,0,0-2.65-2A5.32,5.32,0,0,1,72.76,148.26Z"/><path class="cls-3" d="M107.95,192.59c0,2.81-7.28,0-12,0s-8.54-.6-8.54-3.41,3.82-5.09,8.54-5.09S107.95,189.78,107.95,192.59Z"/><path class="cls-4" d="M205.13,111.77A93.42,93.42,0,0,1,86.57,201.69,93.38,93.38,0,0,1,176.76,44.76,93,93,0,0,1,205.13,111.77Z"/></g></g></svg>