<svg xmlns="http://www.w3.org/2000/svg" viewBox="0 0 192.61 91.12"><defs><style>.cls-1{fill:#f5d76e;}.cls-2{fill:#99770d;}.cls-3{fill:#e5d39a;}.cls-4{fill:#f7df8b;}.cls-5{fill:#e5ca76;}.cls-6{fill:#736a4d;}.cls-7{fill:#b99812;}.cls-8{fill:#f7ca18;}</style></defs><title>saturn</title><g id="Слой_2" data-name="Слой 2"><g id="Planets"><circle class="cls-1" cx="96.3" cy="45.56" r="45.55" transform="translate(-8.81 28.2) rotate(-15.94)"/><circle class="cls-1" cx="96.3" cy="45.56" r="45.55" transform="translate(-8.81 28.2) rotate(-15.94)"/><path class="cls-2" d="M139.9,32.54c-12.6,4.23-27,10.6-43,15.15s-31.64,6.79-44.55,9.86c-.39-1.27-.6-2.4-.64-2.57,11.09-2.13,27-6,44.3-10.92s32.5-10.19,43-14.24A15,15,0,0,1,139.9,32.54Z"/><path class="cls-3" d="M124.09,9.52A45.55,45.55,0,0,0,53.57,29.67Z"/><path class="cls-4" d="M52,34.75a45.24,45.24,0,0,0-1.11,14.6l86-24.56A45.29,45.29,0,0,0,128.21,13Z"/><path class="cls-5" d="M66.32,79.86a45.56,45.56,0,0,0,73.55-21Z"/><path class="cls-6" d="M140.17,33.05A45.54,45.54,0,0,0,74.75,5.47,45.55,45.55,0,0,1,98.72,91a45.54,45.54,0,0,0,41.45-58Z"/><path class="cls-7" d="M137.2,25.49c15.49-3.15,24.52-3.94,25.09-1.91,1,3.57-28.07,15-65,25.54S29.67,65.31,28.66,61.75c-.58-2,7.49-6.19,22.31-11.71C19.23,60.65-1,69.57,0,73.06c1.39,4.86,45.61-3.51,98.78-18.7S194,22.92,192.57,18.06C191.58,14.58,169.75,17.73,137.2,25.49Z"/><path class="cls-2" d="M137.09,25.58c14-2.95,18.14-2.34,18.61-.68.83,2.91-25.55,13-58.93,22.53s-61.11,14.9-61.94,12c-.47-1.65,2.81-4.48,16.11-9.32,0,0,0-.26,0-.26C22.21,59.31,8.07,66.55,8.89,69.4c1.13,4,41-4,89.12-17.69s86.15-28.08,85-32.05c-.8-2.82-17.06-1.33-45.87,5.62C136.86,25.35,137.39,25.51,137.09,25.58Z"/><path class="cls-8" d="M137.2,25.74c13.66-3,16.7-2.27,17.12-.77.75,2.63-25.12,12.32-57.78,21.65S36.8,61.38,36.05,58.75c-.43-1.49,1.88-3.81,14.92-8.48,0,0,0-.23,0-.23C22.82,59.22,9.87,65.76,10.6,68.33c1,3.58,40-4.41,87.05-17.85S182,23.24,181,19.66c-.73-2.54-15.57-1.09-43.74,5.81C137,25.53,137.49,25.66,137.2,25.74Z"/></g></g></svg>