<svg xmlns="http://www.w3.org/2000/svg" viewBox="0 0 78.18 47.14"><defs><style>.cls-1{fill:#f4d03f;}.cls-2{fill:#ecf0f1;}.cls-3{fill:#f7ca18;}</style></defs><title>stars</title><g id="Слой_2" data-name="Слой 2"><g id="Planets"><circle class="cls-1" cx="31.58" cy="14.82" r="2.34"/><circle class="cls-2" cx="27.75" cy="42.04" r="2.73"/><path class="cls-3" d="M78.18,24.49c-4.08-4.08-5.44-4.08-9.52,0,4.08-4.08,4.08-5.44,0-9.53C72.73,19,74.1,19,78.18,15,74.1,19,74.1,20.41,78.18,24.49Z"/><path class="cls-2" d="M10.21,47.14c-4.37-4.37-5.83-4.37-10.21,0,4.38-4.37,4.38-5.83,0-10.21,4.38,4.37,5.83,4.37,10.21,0C5.83,41.31,5.83,42.77,10.21,47.14Z"/><path class="cls-1" d="M18.95,32.66C12.3,26,10.09,26,3.45,32.66c6.64-6.64,6.64-8.86,0-15.5,6.64,6.64,8.86,6.64,15.5,0C12.3,23.8,12.3,26,18.95,32.66Z"/><path class="cls-2" d="M54.84,40.12c-2.47-2.47-3.3-2.47-5.77,0,2.47-2.47,2.47-3.29,0-5.77,2.47,2.47,3.3,2.47,5.77,0C52.37,36.82,52.37,37.64,54.84,40.12Z"/><path class="cls-2" d="M59.65,11.43c-2.47-2.47-3.3-2.47-5.77,0,2.47-2.47,2.47-3.29,0-5.77,2.47,2.47,3.3,2.47,5.77,0C57.18,8.14,57.18,9,59.65,11.43Z"/><circle class="cls-2" cx="53.7" cy="25.74" r="1.41"/><circle class="cls-2" cx="19.72" cy="7.78" r="0.77"/><circle class="cls-2" cx="33.57" cy="1.41" r="1.41"/></g></g></svg>