<svg xmlns="http://www.w3.org/2000/svg" viewBox="0 0 266.17 453.6"><defs><style>.cls-1{fill:#f0ecc7;}.cls-2{fill:#ecb45d;}.cls-3{fill:#ee333e;}.cls-4{fill:#010c30;}.cls-5{fill:#16bcb1;}</style></defs><title>space-rocket</title><g id="Слой_2" data-name="Слой 2"><g id="Layer_1" data-name="Layer 1"><path class="cls-1" d="M3.62,251.9a31.78,31.78,0,0,1,4.61-.49h.23c0-.08,0-.15,0-.23a31.73,31.73,0,0,1,.49-4.6.28.28,0,0,1,.27-.23.28.28,0,0,1,.27.22,31.22,31.22,0,0,1,.49,4.61c0,.08,0,.15,0,.23h.23a31.72,31.72,0,0,1,4.61.49.28.28,0,0,1,0,.55,31.85,31.85,0,0,1-4.61.49H10c0,.08,0,.15,0,.23a31.15,31.15,0,0,1-.49,4.61.28.28,0,0,1-.27.22.28.28,0,0,1-.27-.22,31.82,31.82,0,0,1-.49-4.61c0-.07,0-.15,0-.23H8.23a31.91,31.91,0,0,1-4.61-.49.28.28,0,0,1,0-.55Z"/><path class="cls-1" d="M26.84,274.78a31.7,31.7,0,0,1,4.61-.49h.23c0-.08,0-.15,0-.23a31.8,31.8,0,0,1,.49-4.6.28.28,0,0,1,.27-.23.28.28,0,0,1,.27.22,31.18,31.18,0,0,1,.49,4.61c0,.08,0,.15,0,.23h.23a31.64,31.64,0,0,1,4.61.49.28.28,0,0,1,0,.55,31.83,31.83,0,0,1-4.61.49h-.23c0,.07,0,.15,0,.23a31.09,31.09,0,0,1-.49,4.61.28.28,0,0,1-.27.22.28.28,0,0,1-.27-.22,31.87,31.87,0,0,1-.49-4.61c0-.07,0-.15,0-.23h-.23a31.89,31.89,0,0,1-4.61-.49.28.28,0,0,1,0-.55Z"/><path class="cls-1" d="M21,197.25a31.81,31.81,0,0,1,4.61-.49h.23c0-.08,0-.15,0-.23a31.82,31.82,0,0,1,.49-4.6.28.28,0,0,1,.27-.23.28.28,0,0,1,.27.22,31.14,31.14,0,0,1,.49,4.61c0,.08,0,.15,0,.23h.23a31.73,31.73,0,0,1,4.61.49.28.28,0,0,1,0,.55,31.82,31.82,0,0,1-4.61.49h-.23c0,.08,0,.15,0,.23a31.06,31.06,0,0,1-.49,4.61.28.28,0,0,1-.27.22.28.28,0,0,1-.27-.22,31.9,31.9,0,0,1-.49-4.61c0-.07,0-.15,0-.23h-.23A31.91,31.91,0,0,1,21,197.8a.28.28,0,0,1,0-.55Z"/><path class="cls-1" d="M15.58,234a44.14,44.14,0,0,1,6.41-.68h.31c0-.11,0-.21,0-.31a44.2,44.2,0,0,1,.68-6.4.39.39,0,0,1,.38-.31.39.39,0,0,1,.38.31,43.46,43.46,0,0,1,.69,6.41c0,.1,0,.21,0,.31h.31a44,44,0,0,1,6.41.68.39.39,0,0,1,0,.76,44.52,44.52,0,0,1-6.41.68h-.31c0,.1,0,.21,0,.31a43.35,43.35,0,0,1-.69,6.41.39.39,0,0,1-.38.31.39.39,0,0,1-.38-.31,44.3,44.3,0,0,1-.68-6.41c0-.1,0-.21,0-.31H22a44.61,44.61,0,0,1-6.41-.68.39.39,0,0,1,0-.76Z"/><path class="cls-1" d="M3.27,218.32a34.28,34.28,0,0,1,5-.52h.24c0-.08,0-.16,0-.24a34.34,34.34,0,0,1,.53-5,.31.31,0,0,1,.29-.24.3.3,0,0,1,.29.24,33.68,33.68,0,0,1,.53,5c0,.08,0,.16,0,.24h.24a34.21,34.21,0,0,1,5,.52.3.3,0,0,1,0,.59,34.38,34.38,0,0,1-5,.53h-.24c0,.08,0,.16,0,.24a33.61,33.61,0,0,1-.53,5,.3.3,0,0,1-.29.24.31.31,0,0,1-.29-.24,34.44,34.44,0,0,1-.53-5c0-.08,0-.16,0-.24H8.23a34.45,34.45,0,0,1-5-.53.3.3,0,0,1,0-.59Z"/><path class="cls-1" d="M257.07,184.13a31.71,31.71,0,0,0-4.61-.49h-.23c0-.07,0-.15,0-.23a31.93,31.93,0,0,0-.49-4.6.28.28,0,0,0-.55,0,30.94,30.94,0,0,0-.49,4.61c0,.08,0,.15,0,.23h-.23a31.62,31.62,0,0,0-4.61.49.28.28,0,0,0,0,.55,31.85,31.85,0,0,0,4.61.49h.23c0,.07,0,.15,0,.23a30.85,30.85,0,0,0,.49,4.61.28.28,0,0,0,.27.22.28.28,0,0,0,.27-.22,32,32,0,0,0,.49-4.61c0-.07,0-.15,0-.23h.23a31.94,31.94,0,0,0,4.61-.49.28.28,0,0,0,0-.55Z"/><path class="cls-1" d="M233.86,207a31.84,31.84,0,0,0-4.61-.49H229c0-.07,0-.15,0-.23a32,32,0,0,0-.49-4.6.28.28,0,0,0-.27-.23.28.28,0,0,0-.27.22,30.94,30.94,0,0,0-.49,4.61c0,.08,0,.15,0,.23h-.23a31.79,31.79,0,0,0-4.61.49.28.28,0,0,0,0,.55,31.7,31.7,0,0,0,4.61.49h.23c0,.08,0,.15,0,.23a30.84,30.84,0,0,0,.49,4.61.28.28,0,0,0,.27.22.28.28,0,0,0,.27-.22,32,32,0,0,0,.49-4.61c0-.07,0-.15,0-.23h.23a31.75,31.75,0,0,0,4.61-.49.28.28,0,0,0,0-.55Z"/><path class="cls-1" d="M239.68,129.49a31.68,31.68,0,0,0-4.61-.49h-.23c0-.07,0-.15,0-.23a31.67,31.67,0,0,0-.49-4.6.28.28,0,0,0-.27-.23.28.28,0,0,0-.27.22,31,31,0,0,0-.5,4.61c0,.08,0,.15,0,.23h-.23a31.66,31.66,0,0,0-4.61.49.28.28,0,0,0,0,.55,31.89,31.89,0,0,0,4.61.49h.23c0,.07,0,.15,0,.23a30.93,30.93,0,0,0,.5,4.61.28.28,0,0,0,.27.22.28.28,0,0,0,.27-.22,31.74,31.74,0,0,0,.49-4.61c0-.07,0-.15,0-.23h.23a31.9,31.9,0,0,0,4.61-.49.28.28,0,0,0,0-.55Z"/><path class="cls-1" d="M245.12,166.23a44,44,0,0,0-6.41-.68h-.31c0-.1,0-.21,0-.31a44.12,44.12,0,0,0-.68-6.4.39.39,0,0,0-.38-.31.39.39,0,0,0-.38.31,43.52,43.52,0,0,0-.69,6.41c0,.1,0,.21,0,.31h-.31a43.88,43.88,0,0,0-6.41.68.39.39,0,0,0,0,.76,44.31,44.31,0,0,0,6.41.68h.31c0,.1,0,.21,0,.31a43.41,43.41,0,0,0,.69,6.41.39.39,0,0,0,.38.31.39.39,0,0,0,.38-.31,44.24,44.24,0,0,0,.68-6.41c0-.1,0-.21,0-.31h.31a44.45,44.45,0,0,0,6.41-.68.39.39,0,0,0,0-.76Z"/><path class="cls-1" d="M257.43,150.55a34.16,34.16,0,0,0-5-.53h-.24c0-.08,0-.16,0-.24a34.31,34.31,0,0,0-.53-5,.3.3,0,0,0-.29-.24.3.3,0,0,0-.29.24,33.88,33.88,0,0,0-.53,5c0,.08,0,.16,0,.24h-.24a34.06,34.06,0,0,0-5,.53.3.3,0,0,0,0,.59,34.43,34.43,0,0,0,5,.53h.24c0,.08,0,.16,0,.24a33.83,33.83,0,0,0,.53,5,.3.3,0,0,0,.29.24.31.31,0,0,0,.29-.24,34.4,34.4,0,0,0,.53-5c0-.08,0-.16,0-.24h.24a34.53,34.53,0,0,0,5-.53.3.3,0,0,0,0-.59Z"/><g id="_Группа_" data-name="&lt;Группа&gt;"><path class="cls-2" d="M240.4,401.31l14.72-.19a70,70,0,0,1-7,29.12A70,70,0,0,1,240.4,401.31Z"/><path class="cls-2" d="M11.54,401.41H26.25a70,70,0,0,1-7.36,29.05A69.52,69.52,0,0,1,11.54,401.41Z"/><path class="cls-2" d="M126.23,415.92l14.73-.17a69.87,69.87,0,0,1-7,29.12A69.8,69.8,0,0,1,126.23,415.92Z"/><path class="cls-3" d="M236,390.88l23.24-.27c-.15,1.67-.28,3.25-.43,4.7l-22.26.27C236.37,394.13,236.2,392.55,236,390.88Z"/><path class="cls-3" d="M121.88,405.49l23.16-.27c-.16,1.92-.3,3.5-.4,4.71l-22.24.26C122.26,409,122.09,407.41,121.88,405.49Z"/><path class="cls-3" d="M7.28,390.94H30.5c-.16,1.67-.32,3.24-.48,4.7H7.76C7.6,394.18,7.44,392.61,7.28,390.94Z"/><path class="cls-1" d="M246.57,302c14.42,11.25,14.84,55.66,13.1,82.84l-24.2.29c-.49-5.45-.9-11.61-1.13-18.06a3,3,0,0,0,0-.51C233.43,341.06,235.34,311.18,246.57,302Zm10.29,77.94c2.12-35.5-2.79-58.26-3-59.21a2.88,2.88,0,0,0-5.63,1.24c0,.23,4.93,23,2.87,57.63a2.89,2.89,0,0,0,2.7,3.06H254A2.9,2.9,0,0,0,256.86,379.92Z"/><path class="cls-1" d="M18.89,302.17c11.35,9.09,13.62,39,13,64.51a3.54,3.54,0,0,0,0,.39c-.16,6.46-.49,12.63-.91,18.1H6.79C4.73,358,4.61,313.59,18.89,302.17Zm-1.41,20A2.89,2.89,0,0,0,11.82,321c-.19,1-4.83,23.77-2.28,59.24a2.88,2.88,0,0,0,2.87,2.68h.22a2.87,2.87,0,0,0,2.67-3.07C12.82,345.2,17.44,322.38,17.48,322.16Z"/><path class="cls-4" d="M248,296c25.8,15.07,16.7,98.94,16.3,102.5a2.86,2.86,0,0,1-2.83,2.57l-.56,0a72.15,72.15,0,0,1-10.33,36.62l-.1.13a3,3,0,0,1-.29.33l-.22.19-.13.12-.12.06a3.87,3.87,0,0,1-.55.27c-.07,0-.15.06-.22.07a2.67,2.67,0,0,1-.78.12h0a3,3,0,0,1-.71-.1l-.23-.09a4.05,4.05,0,0,1-.5-.25l-.12-.06c-.06,0-.1-.09-.16-.12l-.19-.16a4,4,0,0,1-.33-.38s-.06,0-.07-.09a72.18,72.18,0,0,1-11.19-36.38l-.56,0h0a2.9,2.9,0,0,1-2.86-2.5c-.17-1.33-1.83-13.78-2.52-29.69l-26.15-6a15.26,15.26,0,0,1-12,5.87h-38.6c.33,12.78-.26,25.08-.84,33.42-.48,6.45-.91,10.43-.93,10.59a2.87,2.87,0,0,1-2.83,2.57l-.56,0a75.19,75.19,0,0,1-4.93,25.63,60.23,60.23,0,0,1-5.34,10.93l0,.07a.41.41,0,0,0-.07.09,4.35,4.35,0,0,1-.34.39l-.17.14c-.06,0-.1.1-.15.13l-.13.07a3,3,0,0,1-.52.24c-.09,0-.16.07-.23.09a2.74,2.74,0,0,1-.76.12v0h0l0,0a2.57,2.57,0,0,1-.73-.1,1.42,1.42,0,0,1-.22-.09,2.31,2.31,0,0,1-.51-.23s-.09,0-.13-.06l-.16-.13-.17-.16a1.86,1.86,0,0,1-.33-.36l-.09-.09A72.6,72.6,0,0,1,120.46,416h-.59a2.86,2.86,0,0,1-2.86-2.5,364.09,364.09,0,0,1-2.84-44.41H75.68a15.24,15.24,0,0,1-12.22-6.16l-25.83,6.25c-.5,15.91-2,28.39-2.18,29.71a2.87,2.87,0,0,1-2.86,2.52H32a72.27,72.27,0,0,1-10.75,36.51s-.06.06-.07.09a4.28,4.28,0,0,1-.33.38l-.19.16-.16.13s-.09,0-.13.06a2.11,2.11,0,0,1-.5.24,1.1,1.1,0,0,1-.23.09,2.6,2.6,0,0,1-.73.12h-.06a2.6,2.6,0,0,1-.74-.12,2.37,2.37,0,0,1-.23-.09,2.44,2.44,0,0,1-.51-.24s-.09,0-.13-.06l-.16-.13-.17-.16a2.86,2.86,0,0,1-.35-.37.41.41,0,0,0-.07-.09s0,0,0-.07a72.66,72.66,0,0,1-10.7-36.44H5.2a2.89,2.89,0,0,1-2.87-2.52c-.45-3.56-10.54-87.33,15.07-102.69a2.89,2.89,0,0,1,3,0c7.53,4.52,12,14.94,14.48,27.52l39.77-9.36c-.52-4.37-1.05-9.19-1.56-14.4a2.67,2.67,0,0,1-.06-.58,768.47,768.47,0,0,1-3.71-87.69c.58-33,3.79-72,13-109.73a3,3,0,0,1,.14-1.07,3.52,3.52,0,0,1,.27-.58C91.93,63.5,106.9,28.06,130.81,1A2.88,2.88,0,0,1,133,0h.22a2.9,2.9,0,0,1,2.16,1c21.57,24.42,37.74,57.6,48,98.62,8.19,32.67,12.74,70.38,13.46,112.09a772.32,772.32,0,0,1-3.69,87.69,2.53,2.53,0,0,1-.06.58c-.52,5.21-1,10-1.56,14.4l39.32,9.32c2.37-12.58,6.68-23.05,14.15-27.65A2.89,2.89,0,0,1,248,296Zm11.68,88.84c1.75-27.18,1.33-71.59-13.1-82.84-11.24,9.2-13.14,39.08-12.26,64.56a3,3,0,0,1,0,.51c.23,6.45.64,12.61,1.13,18.06Zm-.42,5.79-23.24.27c.19,1.67.36,3.25.55,4.7l22.26-.27C259,393.85,259.11,392.28,259.25,390.61Zm-4.13,10.52-14.72.19a70,70,0,0,0,7.7,28.94A70,70,0,0,0,255.12,401.12Zm-25.18-71.73-39.11-9.26c-.55,4.36-1.07,8.15-1.51,11.28,0,.06,0,.12,0,.16-.42,2.93-.78,5.28-1.05,7h2.25a15.23,15.23,0,0,1,14.69,19.33l23.27,5.34A216.35,216.35,0,0,1,229.94,329.39Zm-30,24.44a9.49,9.49,0,0,0-9.48-9.48H75.68a9.48,9.48,0,1,0,0,19H117l0,0h31.84l0,0h41.53A9.5,9.5,0,0,0,200,353.82Zm-12.19-58.74a764,764,0,0,0,3.3-83.39c-.5-28.55-3-61.71-9.72-94.48a150.2,150.2,0,0,1-46.84,7.2,172,172,0,0,1-49.71-7.2c-6.72,32.8-9.23,66-9.74,94.58a762.88,762.88,0,0,0,3.32,83.39C91.87,289.82,139.45,274,187.78,295.09Zm-3.81,33c.94-6.75,2.09-15.91,3.22-26.92-49.33-22.44-98.26-4.18-108.2,0,1.11,11,2.27,20.15,3.22,26.9Zm-.84,5.77H83c.29,2,.55,3.56.73,4.73H182.4C182.58,337.41,182.83,335.81,183.13,333.84ZM180,111.58l.12,0c-.45-2-.9-4-1.37-6a150.88,150.88,0,0,1-44.27,6.38,176.17,176.17,0,0,1-47.14-6.42c-.48,2-.92,4-1.37,6l.12,0C86.59,111.73,133.31,127.18,180,111.58Zm-2.65-11.66c-8.74-34.3-22.63-67.19-44.31-92.75-21.66,25.55-35.56,58.42-44.3,92.72C99.05,102.8,137.9,112.15,177.39,99.92ZM145.47,399.45c.5-8.08,1-19,.65-30.36h-3c.24,8.32.13,16.88-.39,25.46a2.88,2.88,0,0,1-2.87,2.71h-.19a2.87,2.87,0,0,1-2.7-3c.51-8.48.62-16.91.38-25.11H119.94c0,11.48.69,22.53,1.4,30.65Zm-.42,5.77-23.16.27c.2,1.92.37,3.51.52,4.7l22.24-.26C144.75,408.72,144.89,407.14,145,405.22ZM141,415.75l-14.73.17a69.8,69.8,0,0,0,7.7,29A69.87,69.87,0,0,0,141,415.75ZM75.68,338.58h2.25c-.27-1.73-.64-4.08-1.07-7,0-.07,0-.13,0-.2-.45-3.13-1-6.91-1.51-11.25l-39.46,9.29a215.67,215.67,0,0,1,1.9,33.8l23.17-5.61a14.8,14.8,0,0,1-.51-3.78A15.27,15.27,0,0,1,75.68,338.58Zm-43.76,28.1c.59-25.52-1.67-55.42-13-64.51C4.61,313.59,4.73,358,6.79,385.17H31c.42-5.47.75-11.64.91-18.1A3.54,3.54,0,0,1,31.92,366.68ZM30.5,390.94H7.28c.16,1.67.32,3.24.48,4.7H30C30.19,394.18,30.35,392.61,30.5,390.94Zm-4.26,10.47H11.54a69.52,69.52,0,0,0,7.36,29.05A70,70,0,0,0,26.25,401.41Z"/><path class="cls-4" d="M253.86,320.7c.21,1,5.12,23.71,3,59.21a2.9,2.9,0,0,1-2.88,2.71h-.17a2.89,2.89,0,0,1-2.7-3.06c2.06-34.63-2.83-57.4-2.87-57.63a2.88,2.88,0,0,1,5.63-1.24Z"/><path class="cls-1" d="M190.83,320.13l39.11,9.26a216.35,216.35,0,0,0-1.5,33.85l-23.27-5.34a15.23,15.23,0,0,0-14.69-19.33h-2.25c.27-1.73.63-4.08,1.05-7,0,0,0-.1,0-.16C189.77,328.28,190.29,324.48,190.83,320.13Z"/><path class="cls-3" d="M190.49,344.35a9.48,9.48,0,0,1,0,19H149l0,0H117.08l0,0H75.68a9.48,9.48,0,1,1,0-19h114.8Z"/><path class="cls-1" d="M191.08,211.7c-.5-28.55-3-61.71-9.72-94.48a150.2,150.2,0,0,1-46.84,7.2c-.61,0-1.2,0-1.79,0a171.44,171.44,0,0,1-47.92-7.18c-6.72,32.8-9.23,66-9.74,94.58a762.88,762.88,0,0,0,3.32,83.39,159.46,159.46,0,0,1,53.73-10.72,131.5,131.5,0,0,1,55.65,10.62A764,764,0,0,0,191.08,211.7Zm-58,.49h-.68a35.68,35.68,0,0,1,.27-71.34h.4a35.69,35.69,0,1,1,0,71.37Z"/><path class="cls-5" d="M187.18,301.16c-1.12,11-2.28,20.17-3.22,26.92H82.2c-1-6.75-2.11-15.91-3.22-26.9a150.86,150.86,0,0,1,53.13-10.95,132.19,132.19,0,0,1,26.44,2,121.1,121.1,0,0,1,17.06,4.37A118.19,118.19,0,0,1,187.18,301.16Z"/><path class="cls-1" d="M183.13,333.84c-.3,2-.55,3.56-.74,4.73H83.77c-.19-1.17-.45-2.77-.73-4.73Z"/><path class="cls-3" d="M180.16,111.55l-.12,0c-46.74,15.61-93.46.16-93.92,0l-.12,0c.45-2,.89-4,1.37-6a176.17,176.17,0,0,0,47.14,6.42,150.88,150.88,0,0,0,44.27-6.38C179.27,107.55,179.71,109.54,180.16,111.55Z"/><path class="cls-1" d="M171.79,97.27a2.88,2.88,0,0,1-2.06,3.52,3.17,3.17,0,0,1-.74.09,2.87,2.87,0,0,1-2.78-2.15c-.17-.68-.36-1.36-.54-2a2.88,2.88,0,1,1,5.57-1.52C171.43,95.88,171.61,96.57,171.79,97.27Z"/><path class="cls-1" d="M167.19,81.83a2.91,2.91,0,0,1-1.82,3.66,3,3,0,0,1-.92.14,2.88,2.88,0,0,1-2.73-2,319.4,319.4,0,0,0-31.06-65.36,2.89,2.89,0,0,1,4.83-3.16A326.46,326.46,0,0,1,167.19,81.83Z"/><path class="cls-3" d="M133.18,7.3a.79.79,0,0,0-.1-.13c-21.66,25.55-35.56,58.42-44.3,92.72a175.44,175.44,0,0,0,44,6.14,145.1,145.1,0,0,0,44.59-6.12C168.66,65.68,154.8,32.85,133.18,7.3Zm31.27,78.34a2.88,2.88,0,0,1-2.73-2,323.09,323.09,0,0,0-28.6-61.41c-1.5-2.51-2.41-3.89-2.45-4a2.9,2.9,0,0,1,2.48-4.47,3,3,0,0,1,2.35,1.31,326.46,326.46,0,0,1,31.69,66.69,2.91,2.91,0,0,1-1.82,3.66A3,3,0,0,1,164.45,85.64Zm5.28,15.15a3.17,3.17,0,0,1-.74.09,2.87,2.87,0,0,1-2.78-2.15c-.17-.68-.36-1.36-.54-2a2.88,2.88,0,1,1,5.57-1.52c.19.69.36,1.39.55,2.08A2.88,2.88,0,0,1,169.73,100.79Z"/><path class="cls-4" d="M160.15,176.5c0,.26,0,.5,0,.76a1.44,1.44,0,0,1-1.44,1.4h0a1.46,1.46,0,0,1-1.4-1.49c0-.23,0-.45,0-.68a1.44,1.44,0,0,1,2.89,0Z"/><path class="cls-4" d="M133.08,140.81A35.69,35.69,0,1,1,97.39,176.5,35.72,35.72,0,0,1,133.08,140.81ZM163,177.35c0-.29,0-.56,0-.85a29.94,29.94,0,0,0-27.06-29.77,26.41,26.41,0,0,0-2.86-.14,30,30,0,0,0-29.79,27.18c-.09.91-.13,1.82-.13,2.74a29.93,29.93,0,0,0,29,29.89c.32,0,.64,0,1,0A29.92,29.92,0,0,0,163,177.35Z"/><path class="cls-4" d="M158.26,166.55a1.43,1.43,0,0,1-.81,1.87,1.34,1.34,0,0,1-.53.1,1.46,1.46,0,0,1-1.34-.91,6.47,6.47,0,0,0-.26-.63,1.44,1.44,0,0,1,2.65-1.14C158.08,166.09,158.18,166.32,158.26,166.55Z"/><path class="cls-4" d="M155.88,188.31a1.45,1.45,0,0,1,.5,2c-.13.22-.27.43-.41.66a1.48,1.48,0,0,1-1.23.66,1.35,1.35,0,0,1-.76-.23,1.43,1.43,0,0,1-.45-2c.12-.19.25-.37.36-.58A1.45,1.45,0,0,1,155.88,188.31Z"/><path class="cls-4" d="M149.68,155.11a1.44,1.44,0,0,1-.88,2.58,1.36,1.36,0,0,1-.88-.3l-.55-.4a1.45,1.45,0,0,1-.3-2,1.43,1.43,0,0,1,2-.3Z"/><path class="cls-4" d="M135.82,155a21.69,21.69,0,0,1-2.74,43.22h-.71a21.7,21.7,0,0,1-21-21.68c0-.46,0-.92,0-1.37a21.71,21.71,0,0,1,21.64-20.32A21.46,21.46,0,0,1,135.82,155ZM149,176.5a15.92,15.92,0,1,0-15.92,15.92A15.94,15.94,0,0,0,149,176.5Z"/><path class="cls-4" d="M146.68,198.28a1.45,1.45,0,0,1-.58,2l-.66.35a1.41,1.41,0,0,1-.66.16,1.43,1.43,0,0,1-1.28-.78,1.46,1.46,0,0,1,.62-1.95l.61-.32A1.45,1.45,0,0,1,146.68,198.28Z"/><path class="cls-1" d="M146.16,382.63c-.12,6.26-.39,12-.69,16.82l-24.13.29c-.42-4.83-.85-10.72-1.11-17.11-.19-4.33-.3-8.9-.29-13.54h17.37c.13,4.46.16,9,.07,13.54q-.11,5.75-.45,11.57a2.87,2.87,0,0,0,2.7,3h.19a2.88,2.88,0,0,0,2.87-2.71q.37-6,.48-11.91c.07-4.56,0-9.09-.09-13.54h3C146.25,373.72,146.23,378.29,146.16,382.63Z"/><path class="cls-4" d="M149,176.5a16,16,0,0,1-15.92,15.92,15.95,15.95,0,0,1-15.91-15.92,15.93,15.93,0,0,1,15.91-15.92,16,16,0,0,1,15.13,11A15.46,15.46,0,0,1,149,176.5Z"/><path class="cls-4" d="M136.48,149.64a1.44,1.44,0,0,1-.19,2.87h-.17l-.68-.07a1.44,1.44,0,0,1-1.3-1.57,1.42,1.42,0,0,1,1.57-1.3Z"/><path class="cls-4" d="M132.3,200.68a1.44,1.44,0,0,1,0,2.88h-.06l-.75,0a1.44,1.44,0,0,1-1.35-1.51,1.42,1.42,0,0,1,1.51-1.36Z"/><path class="cls-5" d="M135.93,146.73a26.41,26.41,0,0,0-2.86-.14h-.42a29.93,29.93,0,0,0-29.37,27.16c-.09.91-.13,1.82-.13,2.74a29.93,29.93,0,0,0,29,29.89h1A29.92,29.92,0,0,0,163,177.35c0-.29,0-.56,0-.85A29.94,29.94,0,0,0,135.93,146.73ZM147.07,155a1.43,1.43,0,0,1,2-.3l.61.45a1.44,1.44,0,0,1-.88,2.58,1.36,1.36,0,0,1-.88-.3l-.55-.4A1.45,1.45,0,0,1,147.07,155Zm-11.35-5.41.76.09a1.44,1.44,0,0,1-.19,2.87h-.17l-.68-.07a1.44,1.44,0,0,1-1.3-1.57A1.42,1.42,0,0,1,135.72,149.56ZM121.63,152c.23-.12.46-.22.71-.32a1.44,1.44,0,0,1,1.14,2.65l-.62.27a1.33,1.33,0,0,1-.61.14,1.45,1.45,0,0,1-.62-2.75Zm-10.89,9.25.45-.62a1.44,1.44,0,0,1,2.32,1.7l-.39.56a1.46,1.46,0,0,1-1.2.62,1.51,1.51,0,0,1-.81-.25A1.46,1.46,0,0,1,110.73,161.21Zm-3.32,15.06a1.43,1.43,0,0,1-1.34-1.53c0-.26,0-.5.06-.76a1.42,1.42,0,0,1,1.57-1.3,1.44,1.44,0,0,1,1.3,1.57c0,.22,0,.45-.06.68a1.43,1.43,0,0,1-1.44,1.34Zm3.46,13.11a1.55,1.55,0,0,1-.66.16,1.45,1.45,0,0,1-1.28-.79l-.33-.68a1.43,1.43,0,0,1,.68-1.92,1.45,1.45,0,0,1,1.93.68c.09.2.19.4.29.61A1.45,1.45,0,0,1,110.88,189.38Zm9.65,9.52a1.42,1.42,0,0,1-1.21.66,1.4,1.4,0,0,1-.78-.23c-.22-.13-.43-.27-.63-.42a1.44,1.44,0,1,1,1.62-2.38l.58.37A1.44,1.44,0,0,1,120.53,198.9Zm11.92,4.64a.72.72,0,0,1-.19,0h-.06l-.75,0a1.44,1.44,0,0,1-1.35-1.51,1.42,1.42,0,0,1,1.51-1.36l.69,0a.26.26,0,0,1,.15,0,1.4,1.4,0,0,1,1.24,1.46A1.44,1.44,0,0,1,132.44,203.55Zm13.66-3.3-.66.35a1.41,1.41,0,0,1-.66.16,1.43,1.43,0,0,1-1.28-.78,1.46,1.46,0,0,1,.62-1.95l.61-.32a1.45,1.45,0,1,1,1.38,2.54Zm-13-2h-.71a21.7,21.7,0,0,1-21-21.68c0-.46,0-.92,0-1.37a21.7,21.7,0,0,1,21.18-20.31h.46a21.46,21.46,0,0,1,2.74.17,21.69,21.69,0,0,1-2.74,43.22Zm23.31-7.9c-.13.22-.27.43-.41.66a1.48,1.48,0,0,1-1.23.66,1.35,1.35,0,0,1-.76-.23,1.43,1.43,0,0,1-.45-2c.12-.19.25-.37.36-.58a1.44,1.44,0,1,1,2.48,1.47Zm-.81-22.68a6.47,6.47,0,0,0-.26-.63,1.44,1.44,0,0,1,2.65-1.14c.1.25.2.48.29.71a1.43,1.43,0,0,1-.81,1.87,1.34,1.34,0,0,1-.53.1A1.46,1.46,0,0,1,155.58,167.61Zm4.56,9.65a1.44,1.44,0,0,1-1.44,1.4h0a1.46,1.46,0,0,1-1.4-1.49c0-.23,0-.45,0-.68a1.44,1.44,0,0,1,2.89,0C160.15,176.76,160.15,177,160.14,177.27Z"/><path class="cls-4" d="M124.22,152.41a1.45,1.45,0,0,1-.75,1.89l-.62.27a1.33,1.33,0,0,1-.61.14,1.45,1.45,0,0,1-.62-2.75c.23-.12.46-.22.71-.32A1.44,1.44,0,0,1,124.22,152.41Z"/><path class="cls-4" d="M120.1,196.91a1.44,1.44,0,0,1,.43,2,1.42,1.42,0,0,1-1.21.66,1.4,1.4,0,0,1-.78-.23c-.22-.13-.43-.27-.63-.42a1.44,1.44,0,1,1,1.62-2.38Z"/><path class="cls-4" d="M113.19,160.29a1.42,1.42,0,0,1,.32,2l-.39.56a1.46,1.46,0,0,1-1.2.62,1.51,1.51,0,0,1-.81-.25,1.46,1.46,0,0,1-.38-2l.45-.62A1.43,1.43,0,0,1,113.19,160.29Z"/><path class="cls-4" d="M111.5,187.43a1.45,1.45,0,0,1-.62,1.95,1.55,1.55,0,0,1-.66.16,1.45,1.45,0,0,1-1.28-.79l-.33-.68a1.43,1.43,0,0,1,.68-1.92,1.45,1.45,0,0,1,1.93.68C111.3,187,111.4,187.23,111.5,187.43Z"/><path class="cls-4" d="M107.71,172.68a1.44,1.44,0,0,1,1.3,1.57c0,.22,0,.45-.06.68a1.43,1.43,0,0,1-1.44,1.34h-.09a1.43,1.43,0,0,1-1.34-1.53c0-.26,0-.5.06-.76A1.42,1.42,0,0,1,107.71,172.68Z"/><path class="cls-1" d="M77.93,338.58H75.68a15.27,15.27,0,0,0-15.26,15.25,14.8,14.8,0,0,0,.51,3.78l-7,1.7-16.13,3.91a215.67,215.67,0,0,0-1.9-33.8l12.09-2.84,27.38-6.45c.55,4.34,1.07,8.12,1.51,11.25,0,.07,0,.13,0,.2C77.3,334.5,77.66,336.84,77.93,338.58Z"/><path class="cls-4" d="M15.24,318.74a2.9,2.9,0,0,1,2.24,3.42c0,.21-4.66,23-2.18,57.66a2.87,2.87,0,0,1-2.67,3.07h-.22a2.88,2.88,0,0,1-2.87-2.68C7,344.75,11.64,321.93,11.82,321A2.9,2.9,0,0,1,15.24,318.74Z"/></g><path class="cls-1" d="M138.63,175.77l3.35,9.51-16.06,5.44a15.8,15.8,0,0,1-6.36-5.83l12.32-6.4-6-5.55,15.87-9.74a15.78,15.78,0,0,1,6.43,8.38Z"/><path class="cls-1" d="M175.62,296.61l-5.28,31.46H158l.54-35.83A121.1,121.1,0,0,1,175.62,296.61Z"/><path class="cls-2" d="M77.93,338.58H75.68a15.27,15.27,0,0,0-15.26,15.25,14.8,14.8,0,0,0,.51,3.78l-7,1.7-5.94-32.73,27.38-6.45c.55,4.34,1.07,8.12,1.51,11.25,0,.07,0,.13,0,.2C77.3,334.5,77.66,336.84,77.93,338.58Z"/><path class="cls-2" d="M188.24,338.58h2.25a15.27,15.27,0,0,1,15.26,15.25,14.8,14.8,0,0,1-.51,3.78l7,1.7,5.94-32.73-27.38-6.45c-.55,4.34-1.07,8.12-1.52,11.25,0,.07,0,.13,0,.2C188.87,334.5,188.51,336.84,188.24,338.58Z"/><path class="cls-2" d="M137.31,369.09c.13,4.46.16,9,.07,13.54H120.23c-.19-4.33-.3-8.9-.29-13.54Z"/><path class="cls-2" d="M146.16,382.63h-3c.07-4.56,0-9.09-.09-13.54h3C146.25,373.72,146.23,378.29,146.16,382.63Z"/></g></g></svg>