<svg xmlns="http://www.w3.org/2000/svg" viewBox="0 0 32.04 95.7"><defs><style>.cls-1{fill:#293748;}</style></defs><title>space-rocket2</title><g id="Слой_2" data-name="Слой 2"><g id="Layer_1" data-name="Layer 1"><path class="cls-1" d="M15.92,0S8.06,4.34,8.06,16.64H23.78C23.78,4.34,15.92,0,15.92,0Z"/><rect class="cls-1" x="8.06" y="60.05" width="15.71" height="7.86"/><polygon class="cls-1" points="19.43 68.93 16.02 68.93 12.61 68.93 11.16 73.79 16.02 73.79 20.88 73.79 19.43 68.93"/><path class="cls-1" d="M0,53.8a4.45,4.45,0,0,1,1.36-3.2l6.7-6.47V59L0,66.8Z"/><path class="cls-1" d="M16,95.7h0c-3.49-3.62-5.4-14.42-3.68-18.26A4.37,4.37,0,0,1,16,74.54a4.37,4.37,0,0,1,3.68,2.91c1.72,3.83-.19,14.64-3.68,18.26Zm0-8.3c2.43-2.12,3.76-8.45,2.56-10.7A3.09,3.09,0,0,0,16,75a3.09,3.09,0,0,0-2.56,1.71C12.2,79,13.52,85.29,16,87.41h0Z"/><path class="cls-1" d="M16,81.64c1.2-1,1.86-4.19,1.27-5.3A1.53,1.53,0,0,0,16,75.5a1.53,1.53,0,0,0-1.27.84c-.59,1.11.07,4.25,1.27,5.3Z"/><polygon class="cls-1" points="8.06 23.85 8.06 32.78 0 32.78 8.06 23.85"/><path class="cls-1" d="M31.84,53.8a4.45,4.45,0,0,0-1.36-3.2l-6.7-6.47V59l8.06,7.78Z"/><polygon class="cls-1" points="23.78 23.85 23.78 33.01 32.04 33.01 23.78 23.85"/><circle class="cls-1" cx="15.92" cy="25.8" r="3.4"/><circle class="cls-1" cx="15.92" cy="36.84" r="3.4"/><path class="cls-1" d="M23.78,59H8.06V17.67H23.78ZM15.92,21.3a4.5,4.5,0,1,0,4.5,4.5A4.5,4.5,0,0,0,15.92,21.3Zm0,11a4.5,4.5,0,1,0,4.5,4.5A4.5,4.5,0,0,0,15.92,32.34Zm0,11a4.5,4.5,0,1,0,4.5,4.5A4.5,4.5,0,0,0,15.92,43.38Z"/><circle class="cls-1" cx="15.92" cy="47.88" r="3.4"/></g></g></svg>